<svg width="20" height="24" viewBox="0 0 20 24" fill="none" xmlns="http://www.w3.org/2000/svg">
<g clip-path="url(#clip0_9_285)">
<path d="M14.3892 0C13.1407 0.0885938 11.6819 0.9075 10.8317 1.97391C10.0561 2.94141 9.41815 4.37859 9.66693 5.775C11.0307 5.81859 12.4401 4.98 13.2569 3.89531C14.0206 2.88562 14.5987 1.45781 14.3897 0H14.3892Z" fill="black"/>
<path d="M19.3222 8.05172C18.1236 6.51141 16.4393 5.61703 14.8487 5.61703C12.7487 5.61703 11.8606 6.64735 10.4013 6.64735C8.94196 6.64735 7.75384 5.61985 5.93782 5.61985C4.1218 5.61985 2.25456 6.73735 1.04998 8.64844C-0.643021 11.34 -0.35308 16.3992 2.39084 20.7089C3.37271 22.2511 4.68385 23.985 6.39926 24C7.92579 24.015 8.35568 22.9964 10.4237 22.9861C12.4917 22.9739 12.8836 24.0136 14.4069 23.9972C16.1237 23.9836 17.5067 22.0622 18.4885 20.52C19.1923 19.4147 19.4544 18.8578 20.0004 17.61C16.03 16.0603 15.3934 10.2736 19.3227 8.05219L19.3222 8.05172Z" fill="black"/>
</g>
<defs>
<clipPath id="clip0_9_285">
<rect width="20" height="24" fill="white"/>
</clipPath>
</defs>
</svg>
