<svg width="24" height="20" viewBox="0 0 24 20" fill="none" xmlns="http://www.w3.org/2000/svg">
<g clip-path="url(#clip0_27_331)">
<path fill-rule="evenodd" clip-rule="evenodd" d="M0 10C0 9.21132 0.645 8.57144 1.44 8.57144H22.56C23.355 8.57144 24 9.21132 24 10C24 10.7887 23.355 11.4286 22.56 11.4286H1.44C0.645 11.4286 0 10.7887 0 10Z" fill="#0C1037"/>
<path fill-rule="evenodd" clip-rule="evenodd" d="M11.0983 0.418578C11.6605 0.976316 11.6605 1.88108 11.0983 2.43882L3.47649 10.0001L11.0983 17.5614C11.6605 18.1192 11.6605 19.0239 11.0983 19.5817C10.5361 20.1394 9.62409 20.1394 9.06189 19.5817L0.421894 11.0102C-0.140306 10.4525 -0.140306 9.54774 0.421894 8.99001L9.06189 0.418578C9.62409 -0.13916 10.5361 -0.13916 11.0983 0.418578Z" fill="#0C1037"/>
</g>
<defs>
<clipPath id="clip0_27_331">
<rect width="24" height="20" fill="white"/>
</clipPath>
</defs>
</svg>
