<svg width="13" height="13" viewBox="0 0 13 13" fill="none" xmlns="http://www.w3.org/2000/svg">
<path d="M11.8526 0H8.148C7.77216 0 7.47687 0.295297 7.47687 0.671129C7.47687 1.04696 7.77216 1.34226 8.148 1.34226H10.2151L7.74532 3.81201C5.83931 2.38922 3.12795 2.52345 1.40986 4.24154C-0.469302 6.1207 -0.469302 9.20789 1.40986 11.0871C3.28902 12.9662 6.37622 12.9662 8.25538 11.0871C9.97347 9.36896 10.1345 6.63075 8.6849 4.75159L11.1547 2.28184V4.37576C11.1547 4.75159 11.45 5.04689 11.8258 5.04689C12.2016 5.04689 12.4969 4.75159 12.4969 4.37576V0.671129C12.5238 0.295297 12.2285 0 11.8526 0ZM7.34264 10.1475C5.97354 11.5166 3.74539 11.5166 2.37629 10.1475C1.00718 8.77837 1.00718 6.55022 2.37629 5.18112C3.74539 3.81201 5.97354 3.81201 7.34264 5.18112C8.71174 6.55022 8.71174 8.77837 7.34264 10.1475Z" fill="#FEDC00"/>
</svg>
