<svg width="15" height="10" viewBox="0 0 15 10" fill="none" xmlns="http://www.w3.org/2000/svg">
<path d="M6.11548 4.02204C6.99783 4.43527 8.03231 4.43527 8.88424 4.02204L13.6611 1.81818L14.7565 1.32232C14.3609 0.550965 13.4786 0 12.4441 0H2.58606C1.582 0 0.699646 0.550965 0.273682 1.32232L1.36902 1.81818L6.11548 4.02204Z" fill="white"/>
<path d="M9.46249 5.01377C8.85397 5.28925 8.1846 5.42699 7.51522 5.42699C6.84585 5.42699 6.17648 5.28925 5.56796 5.01377L1.21704 3.00275L0 2.45178V7.68595C0 8.95317 1.15619 10 2.55578 10H12.4442C13.8438 10 15 8.95317 15 7.68595V2.45178L13.783 3.00275L9.46249 5.01377Z" fill="white"/>
</svg>
