<svg width="30" height="27" viewBox="0 0 30 27" fill="none" xmlns="http://www.w3.org/2000/svg">
<path d="M28.2541 17.3429C28.8884 17.3429 29.4026 16.8287 29.4026 16.1944V8.7289C29.4026 6.19568 27.3417 4.13474 24.8084 4.13474H23.0649C22.573 4.13474 22.1361 3.82194 21.9776 3.35626L21.6301 2.33538C21.1546 0.938529 19.8438 0 18.3682 0H11.0307C9.58381 0 8.28143 0.914409 7.79002 2.27531L7.39246 3.3763C7.22862 3.82992 6.79453 4.13474 6.3122 4.13474H4.59416C2.06094 4.13474 0 6.19568 0 8.7289V21.9371C0 24.4703 2.06094 26.5312 4.59416 26.5312H24.8084C27.3417 26.5312 29.4026 24.4703 29.4026 21.9371C29.4026 21.3028 28.8884 20.7886 28.2541 20.7886C27.6197 20.7886 27.1055 21.3028 27.1055 21.9371C27.1055 23.2037 26.0751 24.2342 24.8084 24.2342H4.59416C3.32755 24.2342 2.29708 23.2037 2.29708 21.9371V8.7289C2.29708 7.46229 3.32755 6.43182 4.59416 6.43182H6.3122C7.75913 6.43182 9.06151 5.51741 9.55292 4.15651L9.95048 3.05552C10.1143 2.6019 10.5484 2.29708 11.0307 2.29708H18.3682C18.8601 2.29708 19.297 2.60994 19.4556 3.07556L19.8031 4.09644C20.2785 5.49329 21.5893 6.43182 23.0649 6.43182H24.8084C26.0751 6.43182 27.1055 7.46229 27.1055 8.7289V16.1944C27.1055 16.8287 27.6197 17.3429 28.2541 17.3429Z" fill="#FEDC00"/>
<path d="M14.7589 7.58035C10.8008 7.58035 7.58057 10.8006 7.58057 14.7587C7.58057 18.7169 10.8008 21.9371 14.7589 21.9371C18.7171 21.9371 21.9373 18.7169 21.9373 14.7587C21.9373 10.8006 18.7171 7.58035 14.7589 7.58035ZM14.7589 19.64C12.0674 19.64 9.87764 17.4503 9.87764 14.7587C9.87764 12.0672 12.0674 9.87743 14.7589 9.87743C17.4505 9.87743 19.6402 12.0672 19.6402 14.7587C19.6402 17.4503 17.4505 19.64 14.7589 19.64Z" fill="#FEDC00"/>
</svg>
