<svg width="15" height="13" viewBox="0 0 15 13" fill="none" xmlns="http://www.w3.org/2000/svg">
<path fill-rule="evenodd" clip-rule="evenodd" d="M14.2348 0.950999C14.4661 0.733363 14.4661 0.380619 14.2348 0.162983C14.0035 -0.0546531 13.6286 -0.0546531 13.3973 0.162983L0.765755 12.049C0.534462 12.2667 0.534462 12.6194 0.765755 12.8371C0.997048 13.0547 1.37193 13.0547 1.60322 12.8371L3.99942 10.5823C5.03968 11.034 6.23093 11.3286 7.50064 11.3286C9.56747 11.3286 11.426 10.5475 12.7652 9.58017C13.4358 9.0958 13.9861 8.55816 14.3721 8.03479C14.7507 7.52151 15.0008 6.98143 15.0008 6.49984C15.0008 6.01826 14.7507 5.47817 14.3721 4.9649C13.9861 4.44153 13.4358 3.90388 12.7652 3.41951C12.5517 3.26525 12.3249 3.11587 12.0858 2.97345L14.2352 0.950999H14.2348ZM9.97048 4.96351L9.10378 5.77903C9.2148 5.99737 9.27697 6.24147 9.27697 6.49984C9.27697 7.42297 8.48169 8.17129 7.50064 8.17129C7.22642 8.17129 6.96663 8.11279 6.7346 8.00832L5.86789 8.82385C6.33603 9.11565 6.89706 9.28523 7.50064 9.28523C9.1356 9.28523 10.4612 8.03792 10.4612 6.4995C10.4612 5.93155 10.2806 5.40366 9.97085 4.96316L9.97048 4.96351Z" fill="black"/>
<path d="M8.02827 3.75865C8.09452 3.76979 8.16261 3.75134 8.21035 3.70677L9.74946 2.25853C9.85382 2.16033 9.81052 1.99319 9.66805 1.95593C8.98342 1.77625 8.2555 1.67178 7.49982 1.67178C5.43298 1.67178 3.5745 2.45284 2.23522 3.41983C1.56465 3.90421 1.01436 4.44185 0.628377 4.96522C0.250167 5.4785 0 6.01823 0 6.50017C0 6.9821 0.250167 7.52184 0.628747 8.03511C0.958108 8.48187 1.40737 8.93908 1.94878 9.3646C2.02613 9.42519 2.13937 9.41927 2.21079 9.35241L4.53149 7.16874C4.57886 7.12417 4.59848 7.05975 4.58663 6.99742C4.55592 6.8362 4.53963 6.6701 4.53963 6.50017C4.53963 4.96174 5.86522 3.71443 7.50019 3.71443C7.68041 3.71443 7.85693 3.72975 8.02864 3.75865H8.02827Z" fill="black"/>
</svg>
