<svg width="15" height="15" viewBox="0 0 15 15" fill="none" xmlns="http://www.w3.org/2000/svg">
<path fill-rule="evenodd" clip-rule="evenodd" d="M0.804443 4.10523C0.85479 4.17814 1.01596 4.28087 1.09871 4.34626C1.20953 4.43451 1.30126 4.49962 1.40832 4.58526C1.59553 4.73486 3.17799 5.97443 3.2431 5.9944C3.45085 5.5054 3.37966 5.56037 3.69303 5.04909C3.79054 4.89023 3.87155 4.78115 3.97775 4.6385C4.34898 4.13908 4.98528 3.6414 5.5307 3.37288C6.95749 2.67063 8.87645 2.80286 10.1108 3.88156L10.3082 4.05025L12.3993 1.96837C12.3446 1.88967 12.1889 1.76178 12.1096 1.69986C11.8223 1.47503 11.6516 1.32689 11.3183 1.11827C10.7726 0.777122 10.2674 0.540144 9.61024 0.33702C9.32639 0.249347 9.04717 0.179612 8.72339 0.125503C8.46008 0.081522 8.25174 0.0537475 7.98351 0.0418841C7.89873 0.0381226 7.82437 0.0120813 7.7448 0.00600497C7.58189 -0.00643709 7.3646 0.00426746 7.19591 0.00455681L6.69706 0.0546138C6.13456 0.128398 5.82728 0.173535 5.305 0.327759C5.16177 0.370004 5.02751 0.415143 4.89325 0.4652C4.42132 0.641415 3.83771 0.919768 3.42654 1.19465C3.17133 1.36537 2.69796 1.69581 2.47892 1.91282C2.38054 2.01033 2.29402 2.08006 2.19564 2.17844C2.00756 2.36652 1.84785 2.55199 1.67511 2.75598L1.21157 3.39082C1.14646 3.48891 0.84467 3.98891 0.80474 4.10494L0.804443 4.10523Z" fill="#EA4335"/>
<path fill-rule="evenodd" clip-rule="evenodd" d="M0.805908 10.7857C0.824137 10.8453 0.85769 10.9073 0.887782 10.9628C1.04085 11.2464 1.33571 11.7186 1.53652 11.9614C1.95376 12.466 1.99802 12.5299 2.45143 12.9498L3.04172 13.4397C3.1508 13.5163 3.25236 13.5864 3.36752 13.663C3.58424 13.8077 3.8192 13.9478 4.06052 14.0681C5.04865 14.5606 5.7483 14.7296 6.82699 14.8526C6.89817 14.8607 7.00205 14.8592 7.08451 14.8693C7.17942 14.8812 7.17885 14.9052 7.3241 14.9043C7.41583 14.9038 7.50841 14.9055 7.59985 14.9046C7.71356 14.9038 7.737 14.8786 7.82062 14.8693C8.55412 14.7877 8.65742 14.8309 9.49509 14.6222C9.87443 14.5279 10.5087 14.2958 10.8817 14.1052C11.1678 13.9587 11.4745 13.7704 11.7352 13.5861L12.1157 13.2892C12.1791 13.2339 12.292 13.1544 12.3409 13.0919C12.2975 12.9949 10.2653 11.4981 9.99596 11.2432C9.5304 11.4961 9.63341 11.4747 9.13138 11.6772C8.31773 12.0056 7.11837 12.0453 6.27057 11.8031C5.84089 11.6801 5.50235 11.5276 5.13198 11.2947L4.83539 11.0971C4.37591 10.7675 3.95722 10.2779 3.66035 9.80136C3.55994 9.64019 3.28622 9.09593 3.24311 8.89801C3.15543 8.93678 2.74166 9.27764 2.6265 9.36387L0.806191 10.786L0.805908 10.7857Z" fill="#34A853"/>
<path fill-rule="evenodd" clip-rule="evenodd" d="M9.99567 11.2432C10.2651 11.4978 12.2975 12.9949 12.3406 13.0919C12.4242 13.0328 12.5544 12.8856 12.6366 12.8037L12.912 12.4935C13.4933 11.8016 13.8848 11.058 14.1719 10.2024C14.3191 9.76318 14.4236 9.2464 14.4913 8.76463C14.5058 8.6622 14.5121 8.60289 14.5179 8.49843C14.5217 8.42812 14.5298 8.2927 14.5408 8.20994C14.6233 7.58061 14.5495 7.16047 14.4985 6.55834C14.4893 6.4478 14.4424 6.11795 14.4074 6.04532H7.43406C7.40773 6.16887 7.45895 8.44142 7.43262 8.84738C7.42307 8.99582 7.35564 8.9556 7.9465 8.9556C9.11779 8.9556 10.2891 8.9556 11.4607 8.9556C11.4607 9.16075 11.3221 9.52938 11.2593 9.68766C11.1704 9.91104 11.0599 10.1049 10.9335 10.2953C10.7358 10.5925 10.5321 10.8086 10.2656 11.0366C10.1774 11.1121 10.0833 11.1694 9.99567 11.2435V11.2432Z" fill="#4285F4"/>
<path fill-rule="evenodd" clip-rule="evenodd" d="M0.80588 10.7857L2.62617 9.36359C2.74133 9.27736 3.15511 8.9365 3.24278 8.89773C3.21558 8.78836 3.17825 8.69808 3.14758 8.57453C3.04747 8.17175 3.00494 7.90873 3.00494 7.45445C3.00494 7.1625 3.01999 6.9261 3.07063 6.67813C3.09753 6.54734 3.11344 6.45417 3.14411 6.33062C3.1768 6.19925 3.21327 6.1084 3.24308 5.99439C3.17797 5.97414 1.59551 4.73456 1.4083 4.58526C1.30124 4.49961 1.20951 4.43451 1.09869 4.34626C1.01594 4.28086 0.854772 4.17814 0.804425 4.10522C0.732955 4.20708 0.695057 4.32397 0.637766 4.44666C0.481806 4.78057 0.325269 5.23398 0.233834 5.59827C-0.168942 7.19953 -0.044231 8.75074 0.552699 10.2548C0.599284 10.3723 0.748871 10.7105 0.806163 10.7855L0.80588 10.7857Z" fill="#FBBC05"/>
</svg>
