<svg width="28" height="28" viewBox="0 0 28 28" fill="none" xmlns="http://www.w3.org/2000/svg">
<path d="M13.9996 6.81296C10.0282 6.81296 6.81299 10.0317 6.81299 13.9996C6.81299 17.971 10.0317 21.1862 13.9996 21.1862C17.9711 21.1862 21.1863 17.9675 21.1863 13.9996C21.1863 10.0282 17.9676 6.81296 13.9996 6.81296ZM13.9996 18.6643C11.4216 18.6643 9.33497 16.5764 9.33497 13.9996C9.33497 11.4228 11.4228 9.33494 13.9996 9.33494C16.5765 9.33494 18.6643 11.4228 18.6643 13.9996C18.6655 16.5764 16.5776 18.6643 13.9996 18.6643Z" fill="#FEDC00"/>
<path d="M19.7695 0.0879794C17.1927 -0.0322259 10.8101 -0.0263907 8.23098 0.0879794C5.96459 0.19418 3.96544 0.741523 2.35376 2.35321C-0.339773 5.04674 0.0045041 8.67624 0.0045041 13.9991C0.0045041 19.4469 -0.298927 22.9923 2.35376 25.645C5.0578 28.3479 8.73981 27.9943 13.9997 27.9943C19.3961 27.9943 21.2587 27.9978 23.1668 27.2591C25.7611 26.2519 27.7194 23.933 27.9108 19.7678C28.0322 17.1898 28.0252 10.8084 27.9108 8.22926C27.6797 3.31252 25.0411 0.330724 19.7695 0.0879794ZM23.8483 23.863C22.0826 25.6287 19.633 25.4711 13.9658 25.4711C8.13062 25.4711 5.7907 25.5575 4.08332 23.8455C2.11685 21.8883 2.4728 18.7455 2.4728 13.9804C2.4728 7.53254 1.81109 2.88888 8.28233 2.55744C9.76915 2.50492 10.2068 2.48742 13.9495 2.48742L14.002 2.52243C20.2212 2.52243 25.1006 1.87122 25.3935 8.3413C25.46 9.81761 25.4752 10.2611 25.4752 13.998C25.474 19.7655 25.5837 22.1194 23.8483 23.863Z" fill="#FEDC00"/>
<path d="M21.4719 8.20869C22.3993 8.20869 23.1512 7.45681 23.1512 6.52932C23.1512 5.60183 22.3993 4.84995 21.4719 4.84995C20.5444 4.84995 19.7925 5.60183 19.7925 6.52932C19.7925 7.45681 20.5444 8.20869 21.4719 8.20869Z" fill="#FEDC00"/>
</svg>
