<svg width="16" height="10" viewBox="0 0 16 10" fill="none" xmlns="http://www.w3.org/2000/svg">
<path d="M6.61548 4.02204C7.49783 4.43527 8.53231 4.43527 9.38424 4.02204L14.1611 1.81818L15.2565 1.32232C14.8609 0.550965 13.9786 0 12.9441 0H3.08606C2.082 0 1.19965 0.550965 0.773682 1.32232L1.86902 1.81818L6.61548 4.02204Z" fill="black"/>
<path d="M9.96249 5.01377C9.35397 5.28925 8.6846 5.42699 8.01522 5.42699C7.34585 5.42699 6.67648 5.28925 6.06796 5.01377L1.71704 3.00275L0.5 2.45178V7.68595C0.5 8.95317 1.65619 10 3.05578 10H12.9442C14.3438 10 15.5 8.95317 15.5 7.68595V2.45178L14.283 3.00275L9.96249 5.01377Z" fill="black"/>
</svg>
