<svg width="20" height="19" viewBox="0 0 20 19" fill="none" xmlns="http://www.w3.org/2000/svg">
<path d="M19.3222 3.05172C18.1236 1.51141 16.4393 0.617035 14.8487 0.617035C12.7487 0.617035 11.8606 1.64735 10.4013 1.64735C8.94196 1.64735 7.75384 0.619847 5.93782 0.619847C4.1218 0.619847 2.25456 1.73735 1.04998 3.64844C-0.643021 6.34 -0.35308 11.3992 2.39084 15.7089C3.37271 17.2511 4.68385 18.985 6.39926 19C7.92579 19.015 8.35568 17.9964 10.4237 17.9861C12.4917 17.9739 12.8836 19.0136 14.4069 18.9972C16.1237 18.9836 17.5067 17.0622 18.4885 15.52C19.1923 14.4147 19.4544 13.8578 20.0004 12.61C16.03 11.0603 15.3934 5.2736 19.3227 3.05219L19.3222 3.05172Z" fill="black"/>
</svg>
