<svg width="10" height="13" viewBox="0 0 10 13" fill="none" xmlns="http://www.w3.org/2000/svg">
<path fill-rule="evenodd" clip-rule="evenodd" d="M5.7914 9.21492V10.1165H6.43741C6.87446 10.1165 7.22887 10.4452 7.22887 10.8505C7.22887 11.2557 6.87446 11.5844 6.43741 11.5844H5.7914V12.266C5.7914 12.6713 5.43699 13 4.99994 13C4.5629 13 4.20849 12.6713 4.20849 12.266V11.5844H3.56223C3.12532 11.5844 2.77078 11.2557 2.77078 10.8505C2.77078 10.4453 3.12532 10.1165 3.56223 10.1165H4.20849V9.21492C1.80726 8.85993 0 6.92489 0 4.63661C0 2.0798 2.24275 0 4.99994 0C7.75711 0 10 2.07977 10 4.63661C10 6.92494 8.19271 8.85993 5.7914 9.21492ZM1.5828 4.63661C1.5828 6.38361 3.11607 7.80531 4.99992 7.80531C6.88385 7.80531 8.41704 6.38366 8.41704 4.63661C8.41704 2.88955 6.88382 1.46791 4.99992 1.46791C3.1161 1.46791 1.5828 2.88961 1.5828 4.63661Z" fill="#FEDC00"/>
</svg>
