<svg width="9" height="16" viewBox="0 0 9 16" fill="none" xmlns="http://www.w3.org/2000/svg">
<path fill-rule="evenodd" clip-rule="evenodd" d="M2.49273 4.46921V5.75046H0.291278C0.159675 5.75046 0 5.92761 0 6.15677V8.6252C0 8.83069 0.113541 9.03153 0.323849 9.03153H2.49273V15.5314C2.49273 15.7643 2.61078 16 2.784 16H5.69766C5.90023 16 6.02151 15.8269 6.02151 15.6251V9.03153H8.57907C8.8197 9.03153 8.90292 8.80019 8.90292 8.56262V6.21904C8.90292 5.96684 8.80034 5.75014 8.54681 5.75014H6.02182V4.18775C6.02182 3.06499 6.66082 3.18612 7.17336 3.11201C8.18458 2.96568 9 3.38259 9 2.68764V0.406329C9 0.180285 8.87033 0 8.6439 0H6.40922C6.01248 0.0177473 5.64217 0.054176 5.34122 0.124543C4.92513 0.221997 4.93094 0.247216 4.57806 0.387949C4.46098 0.434652 4.34743 0.505965 4.24228 0.563878C3.98971 0.702743 3.57362 1.05768 3.39879 1.28092C2.62465 2.26917 2.49273 3.14937 2.49273 4.46921Z" fill="#1778F2"/>
</svg>
