<svg width="28" height="28" viewBox="0 0 28 28" fill="none" xmlns="http://www.w3.org/2000/svg">
<path d="M23.8995 23.8995C21.2552 26.5438 17.7395 28 14 28C10.2605 28 6.7448 26.5438 4.10049 23.8995C1.45618 21.2553 0 17.7396 0 14C0 10.2604 1.45624 6.7448 4.10049 4.10049C6.74474 1.45618 10.2605 0 14 0C17.7395 0 21.2552 1.45624 23.8995 4.10049C26.5438 6.74474 28 10.2604 28 14C28 17.7396 26.5438 21.2552 23.8995 23.8995ZM25.8888 16.6742L14.3479 19.7194L19.5047 24.8762C20.6283 24.3086 21.682 23.5568 22.6195 22.6194C24.3126 20.9261 25.4021 18.8545 25.8888 16.6742ZM18.2314 12.8599L15.1339 9.76234L10.9014 10.8828L9.75124 15.1228L12.8664 18.2381L17.095 17.1223L18.2314 12.8599ZM17.6853 25.617L9.205 17.1367L7.29418 24.181C10.3975 26.2263 14.2371 26.7046 17.6853 25.617ZM5.38059 22.6194C5.50067 22.7395 5.62317 22.8557 5.74694 22.9698L8.88053 11.4177L1.83786 13.282C1.64162 16.6383 2.82197 20.0607 5.38059 22.6194ZM2.10845 11.3376L13.6531 8.28154L8.49541 3.12381C7.37178 3.69141 6.31804 4.44313 5.38059 5.38059C3.68429 7.07688 2.59386 9.15298 2.10845 11.3376ZM10.3148 2.38302L18.7704 10.8386L20.6513 3.78404C17.5575 1.76883 13.7429 1.30188 10.3148 2.38302ZM22.6194 5.38059C22.4836 5.24481 22.3451 5.11338 22.2045 4.98533L19.1104 16.5905L26.1614 14.7299C26.3612 11.3699 25.1811 7.94229 22.6194 5.38059Z" fill="#FEDC00"/>
</svg>
