<svg width="17" height="17" viewBox="0 0 17 17" fill="none" xmlns="http://www.w3.org/2000/svg">
<path d="M14.865 5.77487V3.70414C14.865 3.23872 14.6801 2.79237 14.351 2.46327C14.0219 2.13417 13.5756 1.94928 13.1102 1.94928H11.0833L9.64432 0.510299C9.31553 0.183456 8.87076 0 8.40715 0C7.94354 0 7.49877 0.183456 7.16998 0.510299L5.77487 1.94928H3.70414C3.23872 1.94928 2.79237 2.13417 2.46327 2.46327C2.13417 2.79237 1.94928 3.23872 1.94928 3.70414V5.77487L0.510299 7.16998C0.183456 7.49877 0 7.94354 0 8.40715C0 8.87076 0.183456 9.31553 0.510299 9.64432L1.94928 11.0833V13.1102C1.94928 13.5756 2.13417 14.0219 2.46327 14.351C2.79237 14.6801 3.23872 14.865 3.70414 14.865H5.77487L7.16998 16.304C7.49877 16.6308 7.94354 16.8143 8.40715 16.8143C8.87076 16.8143 9.31553 16.6308 9.64432 16.304L11.0833 14.865H13.1102C13.5756 14.865 14.0219 14.6801 14.351 14.351C14.6801 14.0219 14.865 13.5756 14.865 13.1102V11.0833L16.304 9.64432C16.6308 9.31553 16.8143 8.87076 16.8143 8.40715C16.8143 7.94354 16.6308 7.49877 16.304 7.16998L14.865 5.77487Z" fill="#2196F3"/>
<path d="M7.74935 10.6007C7.63387 10.6014 7.5194 10.5793 7.4125 10.5356C7.30559 10.4919 7.20836 10.4276 7.12637 10.3463L5.77513 9.03012C5.60991 8.8649 5.51709 8.64081 5.51709 8.40715C5.51709 8.17349 5.60991 7.9494 5.77513 7.78417C5.94036 7.61895 6.16445 7.52613 6.39811 7.52613C6.63177 7.52613 6.85586 7.61895 7.02108 7.78417L7.71425 8.48612L9.72356 6.46803C9.88878 6.2935 10.1166 6.19175 10.3568 6.18517C10.5971 6.17859 10.8301 6.26771 11.0046 6.43293C11.1791 6.59816 11.2809 6.82595 11.2875 7.06619C11.294 7.30643 11.2049 7.53945 11.0397 7.71398L8.40742 10.3463C8.32131 10.4319 8.21836 10.4987 8.10509 10.5425C7.99181 10.5863 7.87067 10.6062 7.74935 10.6007Z" fill="white"/>
</svg>
